<mxfile host="app.diagrams.net" modified="2023-10-25T01:39:41.958Z" agent="Mozilla/5.0 (Windows NT 10.0; Win64; x64) AppleWebKit/537.36 (KHTML, like Gecko) Chrome/118.0.0.0 Safari/537.36" etag="j4JSCTtGXXkxxOg3qXLF" version="22.0.7" type="device">
  <diagram name="Page-1" id="FescH442izdNak3Ufxg8">
    <mxGraphModel dx="993" dy="538" grid="1" gridSize="10" guides="1" tooltips="1" connect="1" arrows="1" fold="1" page="1" pageScale="1" pageWidth="1000" pageHeight="700" math="0" shadow="0">
      <root>
        <mxCell id="0" />
        <mxCell id="1" parent="0" />
        <mxCell id="CgbwCL2m9wf1UKAfmp4F-8" value="" style="rounded=0;whiteSpace=wrap;html=1;fillColor=#f5f5f5;fontColor=#333333;strokeColor=#666666;" vertex="1" parent="1">
          <mxGeometry x="520" y="10" width="470" height="680" as="geometry" />
        </mxCell>
        <mxCell id="CgbwCL2m9wf1UKAfmp4F-2" value="" style="shape=mxgraph.signs.transportation.car_3;html=1;pointerEvents=1;fillColor=#f8cecc;strokeColor=#b85450;verticalLabelPosition=bottom;verticalAlign=top;align=center;" vertex="1" parent="1">
          <mxGeometry x="40" y="300" width="156.32" height="60" as="geometry" />
        </mxCell>
        <mxCell id="CgbwCL2m9wf1UKAfmp4F-3" value="" style="shape=mxgraph.signs.transportation.car_3;html=1;pointerEvents=1;fillColor=#f5f5f5;strokeColor=#666666;verticalLabelPosition=bottom;verticalAlign=top;align=center;gradientColor=#b3b3b3;" vertex="1" parent="1">
          <mxGeometry x="350" y="300" width="156.32" height="60" as="geometry" />
        </mxCell>
        <mxCell id="CgbwCL2m9wf1UKAfmp4F-4" value="" style="endArrow=classic;html=1;rounded=0;exitX=1;exitY=0.5;exitDx=0;exitDy=0;exitPerimeter=0;entryX=0;entryY=0.5;entryDx=0;entryDy=0;entryPerimeter=0;dashed=1;fillColor=#dae8fc;strokeColor=#6c8ebf;" edge="1" parent="1" source="CgbwCL2m9wf1UKAfmp4F-2" target="CgbwCL2m9wf1UKAfmp4F-3">
          <mxGeometry width="50" height="50" relative="1" as="geometry">
            <mxPoint x="280" y="360" as="sourcePoint" />
            <mxPoint x="520" y="320" as="targetPoint" />
          </mxGeometry>
        </mxCell>
        <mxCell id="CgbwCL2m9wf1UKAfmp4F-5" value="Solar Car" style="text;html=1;strokeColor=#b85450;fillColor=#f8cecc;align=center;verticalAlign=middle;whiteSpace=wrap;rounded=0;" vertex="1" parent="1">
          <mxGeometry x="83.16" y="360" width="70" height="30" as="geometry" />
        </mxCell>
        <mxCell id="CgbwCL2m9wf1UKAfmp4F-6" value="Trace Car" style="text;html=1;strokeColor=#666666;fillColor=#f5f5f5;align=center;verticalAlign=middle;whiteSpace=wrap;rounded=0;gradientColor=#b3b3b3;" vertex="1" parent="1">
          <mxGeometry x="393.16" y="360" width="70" height="30" as="geometry" />
        </mxCell>
        <mxCell id="CgbwCL2m9wf1UKAfmp4F-7" value="Radio Signal" style="text;html=1;strokeColor=none;fillColor=none;align=center;verticalAlign=middle;whiteSpace=wrap;rounded=0;" vertex="1" parent="1">
          <mxGeometry x="220" y="330" width="90" height="30" as="geometry" />
        </mxCell>
        <mxCell id="CgbwCL2m9wf1UKAfmp4F-9" value="Services/modules in Trace Car" style="text;html=1;strokeColor=none;fillColor=none;align=center;verticalAlign=middle;whiteSpace=wrap;rounded=0;" vertex="1" parent="1">
          <mxGeometry x="530" y="20" width="100" height="30" as="geometry" />
        </mxCell>
        <mxCell id="CgbwCL2m9wf1UKAfmp4F-13" style="rounded=0;orthogonalLoop=1;jettySize=auto;html=1;fillColor=#fff2cc;strokeColor=#d6b656;dashed=1;" edge="1" parent="1" source="CgbwCL2m9wf1UKAfmp4F-10" target="CgbwCL2m9wf1UKAfmp4F-12">
          <mxGeometry relative="1" as="geometry" />
        </mxCell>
        <mxCell id="CgbwCL2m9wf1UKAfmp4F-14" style="rounded=0;orthogonalLoop=1;jettySize=auto;html=1;fillColor=#fff2cc;strokeColor=#d6b656;dashed=1;" edge="1" parent="1" source="CgbwCL2m9wf1UKAfmp4F-10" target="CgbwCL2m9wf1UKAfmp4F-11">
          <mxGeometry relative="1" as="geometry" />
        </mxCell>
        <mxCell id="CgbwCL2m9wf1UKAfmp4F-28" style="rounded=0;orthogonalLoop=1;jettySize=auto;html=1;" edge="1" parent="1" source="CgbwCL2m9wf1UKAfmp4F-10" target="CgbwCL2m9wf1UKAfmp4F-15">
          <mxGeometry relative="1" as="geometry" />
        </mxCell>
        <mxCell id="CgbwCL2m9wf1UKAfmp4F-10" value="Periodic data gathering from APIs" style="rounded=0;whiteSpace=wrap;html=1;fillColor=#dae8fc;strokeColor=#6c8ebf;" vertex="1" parent="1">
          <mxGeometry x="680" y="130" width="140" height="60" as="geometry" />
        </mxCell>
        <mxCell id="CgbwCL2m9wf1UKAfmp4F-11" value="Cloud cover" style="ellipse;whiteSpace=wrap;html=1;fillColor=#fff2cc;strokeColor=#d6b656;dashed=1;" vertex="1" parent="1">
          <mxGeometry x="560" y="100" width="90" height="50" as="geometry" />
        </mxCell>
        <mxCell id="CgbwCL2m9wf1UKAfmp4F-12" value="Sun position" style="ellipse;whiteSpace=wrap;html=1;fillColor=#fff2cc;strokeColor=#d6b656;dashed=1;" vertex="1" parent="1">
          <mxGeometry x="560" y="160" width="90" height="50" as="geometry" />
        </mxCell>
        <mxCell id="CgbwCL2m9wf1UKAfmp4F-30" style="rounded=0;orthogonalLoop=1;jettySize=auto;html=1;" edge="1" parent="1" source="CgbwCL2m9wf1UKAfmp4F-15" target="CgbwCL2m9wf1UKAfmp4F-29">
          <mxGeometry relative="1" as="geometry" />
        </mxCell>
        <mxCell id="CgbwCL2m9wf1UKAfmp4F-15" value="Prediction Service" style="rounded=0;whiteSpace=wrap;html=1;fillColor=#dae8fc;strokeColor=#6c8ebf;" vertex="1" parent="1">
          <mxGeometry x="750" y="320" width="120" height="60" as="geometry" />
        </mxCell>
        <mxCell id="CgbwCL2m9wf1UKAfmp4F-18" style="edgeStyle=orthogonalEdgeStyle;rounded=0;orthogonalLoop=1;jettySize=auto;html=1;dashed=1;fillColor=#fff2cc;strokeColor=#d6b656;" edge="1" parent="1" source="CgbwCL2m9wf1UKAfmp4F-16" target="CgbwCL2m9wf1UKAfmp4F-17">
          <mxGeometry relative="1" as="geometry" />
        </mxCell>
        <mxCell id="CgbwCL2m9wf1UKAfmp4F-27" style="rounded=0;orthogonalLoop=1;jettySize=auto;html=1;" edge="1" parent="1" source="CgbwCL2m9wf1UKAfmp4F-16" target="CgbwCL2m9wf1UKAfmp4F-15">
          <mxGeometry relative="1" as="geometry" />
        </mxCell>
        <mxCell id="CgbwCL2m9wf1UKAfmp4F-16" value="Database" style="shape=cylinder3;whiteSpace=wrap;html=1;boundedLbl=1;backgroundOutline=1;size=15;fillColor=#e1d5e7;strokeColor=#9673a6;" vertex="1" parent="1">
          <mxGeometry x="570" y="300" width="70" height="90" as="geometry" />
        </mxCell>
        <mxCell id="CgbwCL2m9wf1UKAfmp4F-17" value="To store all gathered/calculated data" style="rounded=0;whiteSpace=wrap;html=1;fillColor=#fff2cc;strokeColor=#d6b656;dashed=1;" vertex="1" parent="1">
          <mxGeometry x="545" y="410" width="120" height="60" as="geometry" />
        </mxCell>
        <mxCell id="CgbwCL2m9wf1UKAfmp4F-19" value="Database" style="shape=cylinder3;whiteSpace=wrap;html=1;boundedLbl=1;backgroundOutline=1;size=15;fillColor=#e1d5e7;strokeColor=#9673a6;" vertex="1" parent="1">
          <mxGeometry x="230" y="50" width="70" height="90" as="geometry" />
        </mxCell>
        <mxCell id="CgbwCL2m9wf1UKAfmp4F-21" style="edgeStyle=orthogonalEdgeStyle;rounded=0;orthogonalLoop=1;jettySize=auto;html=1;dashed=1;fillColor=#fff2cc;strokeColor=#d6b656;" edge="1" parent="1" target="CgbwCL2m9wf1UKAfmp4F-22" source="CgbwCL2m9wf1UKAfmp4F-19">
          <mxGeometry relative="1" as="geometry">
            <mxPoint x="180" y="170" as="sourcePoint" />
          </mxGeometry>
        </mxCell>
        <mxCell id="CgbwCL2m9wf1UKAfmp4F-22" value="To store all pre-generated data (ie. road data etc.)" style="rounded=0;whiteSpace=wrap;html=1;fillColor=#fff2cc;strokeColor=#d6b656;dashed=1;" vertex="1" parent="1">
          <mxGeometry x="205" y="160" width="120" height="60" as="geometry" />
        </mxCell>
        <mxCell id="CgbwCL2m9wf1UKAfmp4F-23" style="rounded=0;orthogonalLoop=1;jettySize=auto;html=1;startArrow=classic;startFill=1;strokeColor=#82b366;fillColor=#d5e8d4;" edge="1" parent="1" source="CgbwCL2m9wf1UKAfmp4F-19" target="CgbwCL2m9wf1UKAfmp4F-16">
          <mxGeometry relative="1" as="geometry" />
        </mxCell>
        <mxCell id="CgbwCL2m9wf1UKAfmp4F-25" value="Sync pre-generated database with database in trace car" style="rounded=0;whiteSpace=wrap;html=1;fillColor=#d5e8d4;strokeColor=#82b366;dashed=1;" vertex="1" parent="1">
          <mxGeometry x="340" y="160" width="155.26" height="70" as="geometry" />
        </mxCell>
        <mxCell id="CgbwCL2m9wf1UKAfmp4F-29" value="Front-end UI" style="rounded=0;whiteSpace=wrap;html=1;fillColor=#dae8fc;strokeColor=#6c8ebf;" vertex="1" parent="1">
          <mxGeometry x="690" y="550" width="120" height="60" as="geometry" />
        </mxCell>
        <mxCell id="CgbwCL2m9wf1UKAfmp4F-31" value="Maybe also have a UI in solar car?" style="rounded=0;whiteSpace=wrap;html=1;fillColor=#fff2cc;strokeColor=#d6b656;dashed=1;" vertex="1" parent="1">
          <mxGeometry x="540" y="550" width="140" height="60" as="geometry" />
        </mxCell>
      </root>
    </mxGraphModel>
  </diagram>
</mxfile>
